<svg width="141" height="39" xmlns="http://www.w3.org/2000/svg"><g fill="none" fill-rule="evenodd"><path d="M0 4.172C0 1.868 1.889 0 4.219 0h10.4C26.674 0 35 8.413 35 19.389 35 30.476 26.673 39 14.62 39H4.219C1.889 39 0 37.132 0 34.828V4.172z" fill="#FFF"/><path d="M47 6.498v11.004c0 .265.244.498.567.498h3.863c3.868 0 6.57-2.56 6.57-6.04C58 8.525 55.302 6 51.43 6h-3.863c-.323 0-.567.233-.567.498z" stroke="#FFF" stroke-width="2"/><path d="M53.38 34.14c.28 0 .51.087.69.26.18.173.27.4.27.68 0 .267-.09.487-.27.66a.954.954 0 01-.69.26h-6.76a.943.943 0 01-.96-.96V22.96c0-.267.093-.493.28-.68a.975.975 0 01.72-.28.96.96 0 01.69.28.91.91 0 01.29.68v11.18h5.74zm11.14-8.76c.28 0 .51.09.69.27.18.18.27.417.27.71v8.68a.943.943 0 01-.96.96c-.28 0-.507-.09-.68-.27a.954.954 0 01-.26-.69v-.52c-.347.467-.82.863-1.42 1.19-.6.327-1.247.49-1.94.49-.907 0-1.73-.233-2.47-.7-.74-.467-1.32-1.117-1.74-1.95-.42-.833-.63-1.77-.63-2.81s.21-1.977.63-2.81c.42-.833.997-1.483 1.73-1.95.733-.467 1.54-.7 2.42-.7a4.47 4.47 0 011.97.44c.607.293 1.09.667 1.45 1.12v-.48a.99.99 0 01.26-.7c.173-.187.4-.28.68-.28zm-4.08 9.06a2.97 2.97 0 001.67-.48 3.24 3.24 0 001.14-1.32c.273-.56.41-1.193.41-1.9 0-.693-.137-1.32-.41-1.88a3.317 3.317 0 00-1.14-1.33 2.927 2.927 0 00-1.67-.49 2.97 2.97 0 00-1.67.48 3.24 3.24 0 00-1.14 1.32c-.273.56-.41 1.193-.41 1.9 0 .707.137 1.34.41 1.9.273.56.653 1 1.14 1.32a2.97 2.97 0 001.67.48zm12.72-9.16c.907 0 1.727.233 2.46.7.733.467 1.31 1.113 1.73 1.94.42.827.63 1.76.63 2.8 0 1.04-.21 1.98-.63 2.82-.42.84-.997 1.493-1.73 1.96-.733.467-1.54.7-2.42.7-.693 0-1.34-.153-1.94-.46-.6-.307-1.087-.687-1.46-1.14v.58a.943.943 0 01-.96.96.91.91 0 01-.67-.27.934.934 0 01-.27-.69V22.16c0-.28.087-.51.26-.69.173-.18.4-.27.68-.27s.51.093.69.28c.18.187.27.413.27.68v4.88c.32-.48.787-.893 1.4-1.24a3.921 3.921 0 011.96-.52zm-.22 9.16a2.94 2.94 0 001.66-.49 3.275 3.275 0 001.15-1.34 4.3 4.3 0 00.41-1.89c0-.693-.137-1.32-.41-1.88-.273-.56-.657-1-1.15-1.32a2.985 2.985 0 00-1.66-.48 3.02 3.02 0 00-1.68.48c-.493.32-.877.757-1.15 1.31-.273.553-.41 1.183-.41 1.89 0 .707.137 1.34.41 1.9a3.29 3.29 0 001.15 1.33 2.97 2.97 0 001.68.49zm6.24-.08a1.002 1.002 0 01-.18-.54c0-.267.14-.493.42-.68a.782.782 0 01.46-.14c.24 0 .46.1.66.3.4.453.83.793 1.29 1.02.46.227 1.01.34 1.65.34.507-.013.953-.13 1.34-.35.387-.22.58-.577.58-1.07 0-.453-.197-.8-.59-1.04-.393-.24-.97-.46-1.73-.66-.747-.2-1.367-.41-1.86-.63-.493-.22-.91-.54-1.25-.96-.34-.42-.51-.97-.51-1.65 0-.6.17-1.127.51-1.58a3.39 3.39 0 011.36-1.06 4.48 4.48 0 011.85-.38c.64 0 1.277.12 1.91.36s1.15.607 1.55 1.1c.16.187.24.38.24.58 0 .213-.107.42-.32.62a.72.72 0 01-.5.18.75.75 0 01-.58-.24 2.814 2.814 0 00-1.03-.74 3.409 3.409 0 00-1.35-.26c-.507 0-.937.103-1.29.31-.353.207-.53.557-.53 1.05.013.467.217.813.61 1.04.393.227.997.447 1.81.66.707.187 1.293.387 1.76.6.467.213.86.53 1.18.95.32.42.48.97.48 1.65 0 .627-.18 1.17-.54 1.63-.36.46-.83.813-1.41 1.06-.58.247-1.197.37-1.85.37-.84 0-1.617-.147-2.33-.44a4.345 4.345 0 01-1.81-1.4zm-8.34-21.2a.855.855 0 01-.3.61.959.959 0 01-.66.25h-7.04c.093.973.463 1.753 1.11 2.34s1.437.88 2.37.88c.64 0 1.16-.093 1.56-.28.4-.187.753-.427 1.06-.72.2-.12.393-.18.58-.18.227 0 .417.08.57.24.153.16.23.347.23.56 0 .28-.133.533-.4.76-.387.387-.9.713-1.54.98s-1.293.4-1.96.4c-1.08 0-2.03-.227-2.85-.68a4.738 4.738 0 01-1.9-1.9c-.447-.813-.67-1.733-.67-2.76 0-1.12.23-2.103.69-2.95.46-.847 1.067-1.497 1.82-1.95a4.631 4.631 0 012.43-.68c.853 0 1.653.22 2.4.66a5.013 5.013 0 011.8 1.82c.453.773.687 1.64.7 2.6zm-4.9-3.32c-.747 0-1.393.21-1.94.63-.547.42-.907 1.07-1.08 1.95h5.9v-.16c-.067-.707-.383-1.287-.95-1.74a3.007 3.007 0 00-1.93-.68zM77.2 8.08c1.053 0 1.93.167 2.63.5.7.333 1.05.76 1.05 1.28a.94.94 0 01-.22.61.691.691 0 01-.56.27.878.878 0 01-.41-.08c-.1-.053-.237-.14-.41-.26a2.152 2.152 0 00-.38-.28 2.619 2.619 0 00-.68-.2 4.507 4.507 0 00-.8-.08c-.693 0-1.307.16-1.84.48a3.27 3.27 0 00-1.24 1.33 4.05 4.05 0 00-.44 1.89c0 .707.143 1.34.43 1.9.287.56.69 1 1.21 1.32.52.32 1.113.48 1.78.48.693 0 1.253-.107 1.68-.32.093-.053.22-.14.38-.26.133-.107.25-.187.35-.24.1-.053.223-.08.37-.08.267 0 .477.083.63.25.153.167.23.383.23.65 0 .28-.177.557-.53.83-.353.273-.827.497-1.42.67-.593.173-1.23.26-1.91.26-1.013 0-1.907-.237-2.68-.71a4.757 4.757 0 01-1.79-1.96c-.42-.833-.63-1.763-.63-2.79 0-1.027.22-1.957.66-2.79a4.92 4.92 0 011.84-1.96c.787-.473 1.687-.71 2.7-.71zm14.52 5.08a.855.855 0 01-.3.61.959.959 0 01-.66.25h-7.04c.093.973.463 1.753 1.11 2.34s1.437.88 2.37.88c.64 0 1.16-.093 1.56-.28.4-.187.753-.427 1.06-.72.2-.12.393-.18.58-.18.227 0 .417.08.57.24.153.16.23.347.23.56 0 .28-.133.533-.4.76-.387.387-.9.713-1.54.98s-1.293.4-1.96.4c-1.08 0-2.03-.227-2.85-.68a4.738 4.738 0 01-1.9-1.9c-.447-.813-.67-1.733-.67-2.76 0-1.12.23-2.103.69-2.95.46-.847 1.067-1.497 1.82-1.95a4.631 4.631 0 012.43-.68c.853 0 1.653.22 2.4.66a5.013 5.013 0 011.8 1.82c.453.773.687 1.64.7 2.6zm-4.9-3.32c-.747 0-1.393.21-1.94.63-.547.42-.907 1.07-1.08 1.95h5.9v-.16c-.067-.707-.383-1.287-.95-1.74a3.007 3.007 0 00-1.93-.68zm18.72-1.7c2.333 0 3.5 1.453 3.5 4.36v5.34c0 .28-.087.51-.26.69-.173.18-.4.27-.68.27a.943.943 0 01-.96-.96v-5.32c0-1.747-.733-2.62-2.2-2.62-.52 0-.99.117-1.41.35a2.53 2.53 0 00-.98.95c-.233.4-.35.84-.35 1.32v5.32a.943.943 0 01-.96.96c-.28 0-.507-.09-.68-.27a.954.954 0 01-.26-.69V12.5c0-.787-.167-1.417-.5-1.89-.333-.473-.887-.71-1.66-.71-.787 0-1.437.25-1.95.75-.513.5-.77 1.117-.77 1.85v5.34a.943.943 0 01-.96.96c-.28 0-.507-.09-.68-.27a.954.954 0 01-.26-.69V9.28c0-.267.09-.493.27-.68a.893.893 0 01.67-.28.943.943 0 01.96.96v.7c.347-.52.81-.957 1.39-1.31a3.57 3.57 0 011.89-.53c1.653 0 2.727.733 3.22 2.2.293-.56.78-1.067 1.46-1.52.68-.453 1.4-.68 2.16-.68zm11.2-.06c.907 0 1.727.233 2.46.7.733.467 1.31 1.113 1.73 1.94.42.827.63 1.76.63 2.8 0 1.04-.21 1.98-.63 2.82-.42.84-.997 1.493-1.73 1.96-.733.467-1.54.7-2.42.7-.693 0-1.34-.153-1.94-.46-.6-.307-1.087-.687-1.46-1.14v.58a.943.943 0 01-.96.96.91.91 0 01-.67-.27.934.934 0 01-.27-.69V4.96c0-.28.087-.51.26-.69.173-.18.4-.27.68-.27s.51.093.69.28c.18.187.27.413.27.68v4.88c.32-.48.787-.893 1.4-1.24a3.921 3.921 0 011.96-.52zm-.22 9.16a2.94 2.94 0 001.66-.49 3.275 3.275 0 001.15-1.34 4.3 4.3 0 00.41-1.89c0-.693-.137-1.32-.41-1.88-.273-.56-.657-1-1.15-1.32a2.985 2.985 0 00-1.66-.48 3.02 3.02 0 00-1.68.48c-.493.32-.877.757-1.15 1.31-.273.553-.41 1.183-.41 1.89 0 .707.137 1.34.41 1.9a3.29 3.29 0 001.15 1.33 2.97 2.97 0 001.68.49zm16.04-4.08a.855.855 0 01-.3.61.959.959 0 01-.66.25h-7.04c.093.973.463 1.753 1.11 2.34s1.437.88 2.37.88c.64 0 1.16-.093 1.56-.28.4-.187.753-.427 1.06-.72.2-.12.393-.18.58-.18.227 0 .417.08.57.24.153.16.23.347.23.56 0 .28-.133.533-.4.76-.387.387-.9.713-1.54.98s-1.293.4-1.96.4c-1.08 0-2.03-.227-2.85-.68a4.738 4.738 0 01-1.9-1.9c-.447-.813-.67-1.733-.67-2.76 0-1.12.23-2.103.69-2.95.46-.847 1.067-1.497 1.82-1.95a4.631 4.631 0 012.43-.68c.853 0 1.653.22 2.4.66a5.013 5.013 0 011.8 1.82c.453.773.687 1.64.7 2.6zm-4.9-3.32c-.747 0-1.393.21-1.94.63-.547.42-.907 1.07-1.08 1.95h5.9v-.16c-.067-.707-.383-1.287-.95-1.74a3.007 3.007 0 00-1.93-.68zm11.92-1.76c.347 0 .647.09.9.27.253.18.38.403.38.67 0 .32-.083.563-.25.73a.83.83 0 01-.61.25c-.12 0-.3-.04-.54-.12-.28-.093-.5-.14-.66-.14-.413 0-.817.143-1.21.43-.393.287-.713.68-.96 1.18a3.72 3.72 0 00-.37 1.67v4.82a.943.943 0 01-.96.96c-.28 0-.507-.09-.68-.27a.954.954 0 01-.26-.69V9.28c0-.267.09-.493.27-.68a.893.893 0 01.67-.28.943.943 0 01.96.96v1.02a3.786 3.786 0 011.32-1.59 3.542 3.542 0 012-.63z" fill="#FFF"/></g></svg>